<?xml version="1.0" encoding="UTF-8"?>
<svg id="svg" xmlns="http://www.w3.org/2000/svg" version="1.1" viewBox="0 0 400 400">
  <!-- Generator: Adobe Illustrator 30.1.0, SVG Export Plug-In . SVG Version: 2.1.1 Build 136)  -->
  <defs>
    <style>
      .st0 {
        fill: #b9def0;
      }

      .st0, .st1, .st2, .st3, .st4 {
        fill-rule: evenodd;
      }

      .st1 {
        fill: #5977e5;
      }

      .st2 {
        fill: #fff;
      }

      .st3 {
        fill: #a48cd4;
      }

      .st4 {
        fill: #d4e5f6;
      }
    </style>
  </defs>
  <g id="svgg">
    <path id="path0" class="st1" d="M63.97,76.49c-1.84.15-2.12-.34,2.58,4.47,2.23,2.27,5.16,5.51,6.53,7.19,1.37,1.68,2.58,3.15,2.71,3.26.36.31,3.62,4.65,5.43,7.23,16.1,22.96,26.43,48.39,32.2,79.3,1.62,8.66,1.57,8.35,4.39,31.45,1.19,9.77,3.22,25.95,4.51,35.94,1.29,9.99,2.5,19.48,2.68,21.09.18,1.61.96,7.76,1.73,13.67,1.85,14.23,5.2,40.32,5.74,44.73.66,5.36,1.64,6.61,6.82,8.68l2.71,1.09h129.69l2.54-.93c3.11-1.15,5.24-2.46,6.08-3.74.66-1.01.74-1.49,2.31-14.86.82-6.91,2.91-24.29,4.51-37.3.22-1.83,1.01-8.33,1.75-14.45,2.21-18.36,4.82-39.72,5.48-44.92.34-2.68.78-6.2.96-7.81.52-4.46,3.05-24.27,3.7-28.91.31-2.26,1.11-8.23,1.77-13.28,3.9-29.9,11.07-74.56,14.62-91.11.14-.65-2.31-.69-46.59-.77-69.93-.13-203.17-.12-204.85.01"/>
    <path id="path1" class="st2" d="M0,200v200h400V0H0v200M315.8,77.64c-.15,1.02-.86,4.83-1.6,8.46-.73,3.63-1.58,8.2-1.88,10.16-.3,1.95-1.01,6.1-1.56,9.22-.56,3.11-1.26,7.33-1.57,9.38-.31,2.04-1.27,8.1-2.14,13.48-4.15,25.67-10.12,71.27-18.96,144.73-.76,6.34-1.9,15.74-2.53,20.9-2.16,17.78-3.11,25.79-3.54,29.88-.65,6.24-2.07,8.19-7.48,10.21l-2.47.92-63.64.1c-65.25.11-65.66.1-69.9-1.49-5.73-2.14-5.61-1.8-8.44-24.2-1.29-10.2-3.4-26.73-4.68-36.72-2.32-18.01-9.18-72.47-10.36-82.22-.34-2.79-.87-6.31-1.18-7.81-.31-1.51-.92-4.79-1.35-7.29-.43-2.5-1.21-6.19-1.74-8.2-3.16-12.18-3.81-14.54-4.86-17.72-1.6-4.82-3.85-11.12-4.39-12.31-.25-.54-.58-1.33-.75-1.76-.16-.43-.73-1.75-1.27-2.93-.53-1.18-1.89-4.22-3.02-6.74-2.62-5.87-11.62-21.68-13.28-23.34-.11-.11-.72-.99-1.36-1.95-.98-1.48-4.84-6.74-6.24-8.52-.22-.28-.93-1.08-1.58-1.77-.64-.69-1.87-2.13-2.73-3.2-.86-1.07-3.44-3.86-5.75-6.2-2.31-2.34-4.1-4.4-3.99-4.59.12-.19,56.56-.34,127.36-.34h127.15l-.27,1.86"/>
    <path id="path2" class="st0" d="M98.34,76.07c2.63.07,6.94.07,9.57,0,2.63-.07.48-.12-4.79-.12s-7.42.06-4.79.12M156.93,76.07c7.36.06,19.4.06,26.76,0,7.36-.06,1.34-.11-13.38-.11s-20.74.05-13.38.11M205.37,76.07c3.06.07,8.07.07,11.13,0,3.06-.07.56-.12-5.57-.12s-8.63.05-5.57.12M238.18,76.06c.48.09,1.27.09,1.76,0,.48-.09.09-.17-.88-.17s-1.36.08-.88.17M272.56,76.06c.48.09,1.27.09,1.76,0,.48-.09.09-.17-.88-.17s-1.36.08-.88.17M64.84,79.88c.73.75,1.41,1.37,1.52,1.37s-.4-.61-1.13-1.37c-.73-.75-1.41-1.37-1.52-1.37s.4.61,1.13,1.37M68.56,83.59c1.06,1.07,2.01,1.95,2.12,1.95s-.67-.88-1.73-1.95c-1.06-1.07-2.01-1.95-2.12-1.95s.67.88,1.73,1.95"/>
    <path id="path3" class="st3" d="M61.87,76.45c.28.28,3.02.18,3.33-.12.09-.09-.69-.16-1.73-.16s-1.76.13-1.61.28M73.93,76.46c4.24.06,11.19.06,15.43,0,4.24-.06.77-.11-7.71-.11s-11.96.05-7.71.11M121,76.46c8.22.06,21.66.06,29.88,0,8.22-.06,1.49-.11-14.94-.11s-23.16.05-14.94.11M213.18,76.45c.48.09,1.27.09,1.76,0,.48-.09.09-.17-.88-.17s-1.36.08-.88.17M245.64,76.46c12.96.06,34.05.06,46.87,0,12.82-.06,2.22-.1-23.57-.1s-36.27.05-23.31.1M288.37,267.19c0,.75.08,1.06.18.68.1-.38.1-.99,0-1.37-.1-.38-.18-.07-.18.68M285.25,293.36c0,.75.08,1.06.18.68.1-.38.1-.99,0-1.37-.1-.38-.18-.07-.18.68M284.47,299.61c0,.75.08,1.06.18.68.1-.38.1-.99,0-1.37-.1-.38-.18-.07-.18.68M281.74,322.46c0,.86.08,1.17.18.68.09-.49.09-1.19,0-1.56-.1-.37-.17.02-.17.88M132.12,323.83c0,.75.08,1.06.18.68.1-.38.1-.99,0-1.37-.1-.38-.18-.07-.18.68M176.3,335.06c17.15.06,45.1.06,62.11,0,17.01-.06,2.98-.1-31.18-.1s-48.08.05-30.93.1"/>
    <path id="path4" class="st4" d="M61.56,76.12c-.11.19.18.67.66,1.07l.87.74-.72-.86-.72-.85,1.7-.15,1.7-.15-1.64-.07c-.9-.04-1.73.08-1.85.27M73.14,76.07c3.81.06,10.05.06,13.87,0,3.81-.06.69-.12-6.93-.12s-10.75.05-6.93.12M120.21,76.07c4.35.06,11.47.06,15.82,0,4.35-.06.79-.11-7.91-.11s-12.26.05-7.91.11M197.56,76.06c.48.09,1.27.09,1.76,0,.48-.09.09-.17-.88-.17s-1.36.08-.88.17M225.68,76.07c2.2.07,5.8.07,8.01,0,2.2-.07.4-.13-4-.13s-6.21.06-4,.13M248.34,76.07c4.35.06,11.47.06,15.82,0,4.35-.06.79-.11-7.91-.11s-12.26.05-7.91.11M295.19,76.07c18.99.1,20.39.15,20.56.79.13.51.19.46.22-.2l.05-.88-20.61.09-20.61.09,20.38.1"/>
  </g>
</svg>