<svg id="svg" version="1.1" width="400" height="400" viewBox="0 0 400 400" xmlns="http://www.w3.org/2000/svg" xmlns:xlink="http://www.w3.org/1999/xlink"><g id="svgg"><path id="path0" d="M63.965 76.488 C 62.126 76.641,61.842 76.151,66.548 80.954 C 68.774 83.226,71.712 86.464,73.076 88.148 C 74.441 89.833,75.660 91.299,75.785 91.406 C 76.145 91.715,79.409 96.060,81.214 98.633 C 97.318 121.589,107.647 147.028,113.412 177.930 C 115.028 186.593,114.985 186.282,117.801 209.375 C 118.993 219.150,121.025 235.322,122.316 245.313 C 123.607 255.303,124.813 264.795,124.994 266.406 C 125.176 268.018,125.953 274.170,126.721 280.078 C 128.570 294.305,131.919 320.393,132.461 324.805 C 133.120 330.162,134.104 331.414,139.281 333.485 L 141.992 334.570 206.836 334.570 L 271.680 334.570 274.218 333.635 C 277.325 332.490,279.461 331.177,280.301 329.895 C 280.962 328.887,281.037 328.408,282.615 315.039 C 283.430 308.131,285.529 290.753,287.121 277.734 C 287.345 275.908,288.131 269.404,288.868 263.281 C 291.079 244.925,293.687 223.559,294.353 218.359 C 294.697 215.674,295.131 212.158,295.318 210.547 C 295.836 206.086,298.368 186.275,299.013 181.641 C 299.327 179.385,300.122 173.408,300.780 168.359 C 304.678 138.458,311.847 93.794,315.405 77.246 C 315.544 76.598,313.095 76.558,268.811 76.473 C 198.878 76.340,65.637 76.350,63.965 76.488 " stroke="none" fill="#5977e5" fill-rule="evenodd"></path><path id="path1" d="M0.000 200.000 L 0.000 400.000 200.000 400.000 L 400.000 400.000 400.000 200.000 L 400.000 0.000 200.000 0.000 L 0.000 0.000 0.000 200.000 M315.797 77.637 C 315.651 78.657,314.933 82.463,314.202 86.094 C 313.472 89.726,312.625 94.296,312.321 96.251 C 312.018 98.205,311.315 102.354,310.759 105.469 C 310.203 108.584,309.496 112.803,309.187 114.844 C 308.878 116.885,307.915 122.949,307.047 128.320 C 302.898 153.994,296.923 199.592,288.084 273.047 C 287.321 279.385,286.184 288.789,285.556 293.945 C 283.392 311.728,282.444 319.740,282.020 323.828 C 281.373 330.065,279.945 332.014,274.542 334.036 L 272.070 334.961 208.426 335.065 C 143.178 335.173,142.762 335.164,138.523 333.578 C 132.795 331.434,132.915 331.779,130.081 309.375 C 128.790 299.170,126.683 282.646,125.398 272.656 C 123.082 254.651,116.219 200.190,115.037 190.436 C 114.699 187.647,114.168 184.131,113.858 182.624 C 113.548 181.116,112.939 177.836,112.506 175.334 C 112.072 172.832,111.291 169.141,110.768 167.131 C 107.606 154.956,106.956 152.591,105.903 149.414 C 104.306 144.599,102.057 138.291,101.515 137.109 C 101.269 136.572,100.934 135.781,100.770 135.352 C 100.606 134.922,100.036 133.604,99.502 132.422 C 98.968 131.240,97.610 128.206,96.483 125.680 C 93.867 119.814,84.865 103.997,83.202 102.344 C 83.094 102.236,82.482 101.357,81.843 100.391 C 80.866 98.915,77.007 93.651,75.599 91.873 C 75.377 91.593,74.668 90.798,74.023 90.107 C 73.379 89.415,72.151 87.975,71.295 86.905 C 70.439 85.836,67.851 83.047,65.544 80.708 C 63.236 78.369,61.442 76.303,61.557 76.118 C 61.673 75.931,118.117 75.781,188.914 75.781 L 316.063 75.781 315.797 77.637 " stroke="none" fill="#ffffff" fill-rule="evenodd"></path><path id="path2" d="M98.340 76.073 C 100.972 76.141,105.278 76.141,107.910 76.073 C 110.542 76.005,108.389 75.950,103.125 75.950 C 97.861 75.950,95.708 76.005,98.340 76.073 M156.934 76.074 C 164.292 76.133,176.333 76.133,183.691 76.074 C 191.050 76.015,185.029 75.966,170.313 75.966 C 155.596 75.966,149.575 76.015,156.934 76.074 M205.371 76.073 C 208.433 76.139,213.442 76.139,216.504 76.073 C 219.565 76.007,217.061 75.953,210.938 75.953 C 204.814 75.953,202.310 76.007,205.371 76.073 M238.184 76.057 C 238.667 76.150,239.458 76.150,239.941 76.057 C 240.425 75.964,240.029 75.888,239.063 75.888 C 238.096 75.888,237.700 75.964,238.184 76.057 M272.559 76.057 C 273.042 76.150,273.833 76.150,274.316 76.057 C 274.800 75.964,274.404 75.888,273.438 75.888 C 272.471 75.888,272.075 75.964,272.559 76.057 M64.844 79.883 C 65.573 80.635,66.257 81.250,66.364 81.250 C 66.472 81.250,65.963 80.635,65.234 79.883 C 64.506 79.131,63.821 78.516,63.714 78.516 C 63.607 78.516,64.115 79.131,64.844 79.883 M68.555 83.594 C 69.613 84.668,70.566 85.547,70.674 85.547 C 70.781 85.547,70.003 84.668,68.945 83.594 C 67.887 82.520,66.934 81.641,66.826 81.641 C 66.719 81.641,67.497 82.520,68.555 83.594 " stroke="none" fill="#b9def0" fill-rule="evenodd"></path><path id="path3" d="M61.870 76.453 C 62.150 76.734,64.892 76.633,65.202 76.331 C 65.291 76.243,64.515 76.172,63.477 76.172 C 62.438 76.172,61.715 76.298,61.870 76.453 M73.926 76.464 C 78.169 76.527,85.112 76.527,89.355 76.464 C 93.599 76.401,90.127 76.350,81.641 76.350 C 73.154 76.350,69.683 76.401,73.926 76.464 M120.996 76.465 C 129.214 76.524,142.661 76.524,150.879 76.465 C 159.097 76.406,152.373 76.358,135.938 76.358 C 119.502 76.358,112.778 76.406,120.996 76.465 M213.184 76.448 C 213.667 76.541,214.458 76.541,214.941 76.448 C 215.425 76.354,215.029 76.278,214.063 76.278 C 213.096 76.278,212.700 76.354,213.184 76.448 M245.636 76.465 C 258.597 76.522,279.690 76.522,292.511 76.465 C 305.331 76.408,294.727 76.361,268.945 76.361 C 243.164 76.361,232.675 76.408,245.636 76.465 M288.372 267.188 C 288.372 267.939,288.452 268.247,288.551 267.871 C 288.649 267.495,288.649 266.880,288.551 266.504 C 288.452 266.128,288.372 266.436,288.372 267.188 M285.247 293.359 C 285.247 294.111,285.327 294.419,285.426 294.043 C 285.524 293.667,285.524 293.052,285.426 292.676 C 285.327 292.300,285.247 292.607,285.247 293.359 M284.466 299.609 C 284.466 300.361,284.546 300.669,284.644 300.293 C 284.743 299.917,284.743 299.302,284.644 298.926 C 284.546 298.550,284.466 298.857,284.466 299.609 M281.739 322.461 C 281.743 323.320,281.823 323.626,281.917 323.140 C 282.010 322.654,282.007 321.951,281.909 321.577 C 281.811 321.204,281.735 321.602,281.739 322.461 M132.122 323.828 C 132.122 324.580,132.202 324.888,132.301 324.512 C 132.399 324.136,132.399 323.521,132.301 323.145 C 132.202 322.769,132.122 323.076,132.122 323.828 M176.300 335.059 C 193.451 335.115,221.400 335.115,238.410 335.059 C 255.419 335.002,241.387 334.956,207.227 334.956 C 173.066 334.956,159.150 335.002,176.300 335.059 " stroke="none" fill="#a48cd4" fill-rule="evenodd"></path><path id="path4" d="M61.556 76.120 C 61.441 76.306,61.738 76.789,62.216 77.194 L 63.086 77.930 62.364 77.075 L 61.642 76.221 63.340 76.069 L 65.039 75.918 63.402 75.849 C 62.502 75.812,61.671 75.934,61.556 76.120 M73.145 76.074 C 76.958 76.138,83.198 76.138,87.012 76.074 C 90.825 76.010,87.705 75.957,80.078 75.957 C 72.451 75.957,69.331 76.010,73.145 76.074 M120.215 76.074 C 124.565 76.137,131.685 76.137,136.035 76.074 C 140.386 76.011,136.826 75.959,128.125 75.959 C 119.424 75.959,115.864 76.011,120.215 76.074 M197.559 76.057 C 198.042 76.150,198.833 76.150,199.316 76.057 C 199.800 75.964,199.404 75.888,198.438 75.888 C 197.471 75.888,197.075 75.964,197.559 76.057 M225.684 76.073 C 227.886 76.142,231.489 76.142,233.691 76.073 C 235.894 76.003,234.092 75.946,229.688 75.946 C 225.283 75.946,223.481 76.003,225.684 76.073 M248.340 76.074 C 252.690 76.137,259.810 76.137,264.160 76.074 C 268.511 76.011,264.951 75.959,256.250 75.959 C 247.549 75.959,243.989 76.011,248.340 76.074 M295.187 76.074 C 314.179 76.172,315.581 76.225,315.747 76.859 C 315.880 77.367,315.936 77.316,315.970 76.660 L 316.016 75.781 295.410 75.875 L 274.805 75.969 295.187 76.074 " stroke="none" fill="#d4e5f6" fill-rule="evenodd"></path></g></svg>